<svg 
 xmlns="http://www.w3.org/2000/svg"
 xmlns:xlink="http://www.w3.org/1999/xlink"
 width="24px" height="18px">
<path fill-rule="evenodd"  fill="rgb(255, 255, 255)"
 d="M23.177,15.135 C22.78,16.234 20.297,16.234 19.198,15.134 L17.715,13.652 L18.314,13.52 L19.213,13.951 L21.449,11.715 C21.320,11.518 21.243,11.283 21.243,11.29 C21.243,10.945 21.252,10.863 21.268,10.784 L18.338,5.444 C18.217,5.468 18.91,5.481 17.962,5.481 C17.749,5.481 17.545,5.446 17.353,5.383 L15.338,7.539 L15.338,9.794 C15.338,10.410 14.838,10.910 14.221,10.910 L10.326,10.910 L10.326,11.596 L13.959,11.596 C14.808,11.595 15.585,11.943 16.141,12.499 C16.698,13.55 17.45,13.832 17.45,14.682 C17.45,15.531 16.698,16.307 16.141,16.863 C15.585,17.420 14.808,17.767 13.959,17.767 L3.85,17.767 C2.236,17.767 1.459,17.420 0.903,16.863 C0.346,16.307 0.0,15.531 0.0,14.682 C0.0,13.832 0.346,13.55 0.903,12.499 C1.459,11.943 2.236,11.595 3.85,11.596 L4.600,11.596 L4.600,10.910 L1.957,10.910 C1.341,10.910 0.841,10.410 0.841,9.794 L0.841,7.194 C0.841,6.577 1.341,6.78 1.957,6.78 L2.805,6.78 L2.805,1.754 C2.805,0.913 3.486,0.232 4.327,0.232 L8.506,0.232 C9.347,0.232 10.28,0.913 10.28,1.754 L10.28,6.78 L13.297,6.78 L16.1,3.374 C16.72,2.352 16.922,1.544 17.962,1.544 C19.50,1.544 19.931,2.425 19.931,3.512 C19.931,3.762 19.883,4.0 19.798,4.219 L22.554,9.779 C23.219,9.810 23.749,10.357 23.749,11.29 C23.749,11.261 23.686,11.476 23.576,11.662 C24.251,12.748 24.120,14.192 23.177,15.135 ZM7.880,2.379 L4.952,2.379 L4.952,5.839 L7.880,5.839 L7.880,2.379 ZM9.231,14.358 L9.231,13.385 L7.814,13.385 L7.814,14.358 L6.293,14.358 L6.293,13.385 L4.876,13.385 L4.876,14.358 L3.355,14.358 L3.355,13.385 L3.85,13.385 C2.725,13.386 2.406,13.529 2.169,13.765 C1.933,14.2 1.789,14.321 1.789,14.682 C1.789,15.42 1.933,15.360 2.169,15.597 C2.406,15.833 2.725,15.977 3.85,15.977 L4.824,15.977 L4.824,15.312 L6.345,15.312 L6.345,15.977 L7.761,15.977 L7.761,15.312 L9.283,15.312 L9.283,15.977 L10.699,15.977 L10.699,15.312 L12.221,15.312 L12.221,15.977 L13.959,15.977 C14.320,15.977 14.638,15.833 14.875,15.597 C15.111,15.360 15.255,15.42 15.255,14.682 C15.255,14.321 15.111,14.2 14.875,13.765 C14.638,13.529 14.320,13.386 13.959,13.385 L13.690,13.385 L13.690,14.358 L12.169,14.358 L12.169,13.385 L10.752,13.385 L10.752,14.358 L9.231,14.358 ZM17.962,2.856 C17.600,2.856 17.306,3.150 17.306,3.513 C17.306,3.875 17.600,4.169 17.962,4.169 C18.325,4.169 18.619,3.875 18.619,3.513 C18.619,3.150 18.325,2.856 17.962,2.856 ZM22.496,10.537 C22.225,10.537 22.4,10.757 22.4,11.29 C22.4,11.301 22.225,11.521 22.496,11.521 C22.768,11.521 22.989,11.301 22.989,11.29 C22.989,10.757 22.768,10.537 22.496,10.537 Z"/>
</svg>